<svg xmlns="http://www.w3.org/2000/svg" xmlns:xlink="http://www.w3.org/1999/xlink" width="500px" height="500px" viewBox="0 0 500 500">
    <g id="cd1a8465-0065-486b-8be1-e564f569e466">
<g style="">
		<g id="cd1a8465-0065-486b-8be1-e564f569e466-child-0">
<path style="stroke: none; stroke-width: 0; stroke-dasharray: none; stroke-linecap: butt; stroke-dashoffset: 0; stroke-linejoin: miter; stroke-miterlimit: 4; fill: rgb(42,42,42); fill-rule: nonzero; opacity: 1;" transform="matrix(1 0 0 1 250 250) matrix(1 0 0 1 0 0)  translate(-2066.518023, -600.000007)" d="M2052.51328,359.97258c7.38951,-4.34896 16.53783,-4.42536 23.99894,-0.20041l190.87141,108.08327c7.46123,4.22501 12.10165,12.10962 12.17325,20.68374l1.83174,219.34824c0.0716,8.57412 -4.4365,16.53513 -11.82613,20.88416l-189.03974,111.25585c-7.38951,4.34896 -16.53783,4.42536 -23.99894,0.20041l-56.53902,-32.01591l0.44296,-100.63396l56.47087,32.3987c6.19766,3.55575 13.8215,3.53502 19.99974,-0.05437l106.03214,-61.60189c6.17834,-3.58945 9.97239,-10.20236 9.95297,-17.34768l-0.33339,-122.6316c-0.01943,-7.14532 -3.84938,-13.7375 -10.04714,-17.29331l-103.16726,-59.18954l0.01591,-0.02749l-100.79225,-58.33396zM1865.65241,732.14457c-7.46123,-4.22501 -12.10165,-12.10962 -12.17325,-20.68374l-1.83174,-219.34824c-0.0716,-8.57412 4.4365,-16.53513 11.82613,-20.88416l55.69641,-32.77909l87.26445,50.50468l-56.32886,32.72559c-6.17834,3.58945 -9.97239,10.20236 -9.95297,17.34768l0.33339,122.6316c0.00206,0.75837 0.04705,1.51052 0.13323,2.25346l-0.48598,110.40788z" stroke-linecap="round"></path>
</g>
</g>
</g>

  </svg>